<mxfile host="app.diagrams.net" modified="2022-05-10T08:34:41.108Z" agent="5.0 (Windows NT 10.0; Win64; x64) AppleWebKit/537.36 (KHTML, like Gecko) Chrome/98.0.4758.102 Safari/537.36" etag="LVXuQDa7UEdH2h2nOntC" version="18.0.2" type="github">
  <diagram id="mbmgw8_IbOcYM1JjEXLK" name="Page-1">
    <mxGraphModel dx="611" dy="321" grid="0" gridSize="10" guides="1" tooltips="1" connect="1" arrows="1" fold="1" page="1" pageScale="1" pageWidth="827" pageHeight="1169" math="0" shadow="0">
      <root>
        <mxCell id="0" />
        <mxCell id="1" parent="0" />
        <mxCell id="U6Z3fDWPKc3-cZ_HL3Em-23" value="" style="whiteSpace=wrap;html=1;aspect=fixed;fillColor=#FFFFFF;" vertex="1" parent="1">
          <mxGeometry x="314.5" y="31" width="113" height="113" as="geometry" />
        </mxCell>
        <mxCell id="U6Z3fDWPKc3-cZ_HL3Em-22" value="" style="whiteSpace=wrap;html=1;aspect=fixed;fillColor=#FFFFFF;" vertex="1" parent="1">
          <mxGeometry x="183.5" y="31" width="113" height="113" as="geometry" />
        </mxCell>
        <mxCell id="U6Z3fDWPKc3-cZ_HL3Em-21" value="" style="whiteSpace=wrap;html=1;aspect=fixed;fillColor=#FFFFFF;" vertex="1" parent="1">
          <mxGeometry x="51.5" y="31" width="113" height="113" as="geometry" />
        </mxCell>
        <mxCell id="U6Z3fDWPKc3-cZ_HL3Em-5" value="" style="verticalLabelPosition=bottom;verticalAlign=top;html=1;shape=mxgraph.basic.rect;fillColor2=none;strokeWidth=1;size=20;indent=5;" vertex="1" parent="1">
          <mxGeometry x="195" y="49" width="90" height="40" as="geometry" />
        </mxCell>
        <mxCell id="U6Z3fDWPKc3-cZ_HL3Em-6" value="" style="shape=partialRectangle;whiteSpace=wrap;html=1;top=0;bottom=0;fillColor=#000000;" vertex="1" parent="1">
          <mxGeometry x="225" y="49" width="30" height="40" as="geometry" />
        </mxCell>
        <mxCell id="U6Z3fDWPKc3-cZ_HL3Em-7" value="&lt;font style=&quot;vertical-align: inherit;&quot;&gt;&lt;font style=&quot;vertical-align: inherit;&quot;&gt;（1）&lt;/font&gt;&lt;/font&gt;" style="text;html=1;strokeColor=none;fillColor=none;align=center;verticalAlign=middle;whiteSpace=wrap;rounded=0;" vertex="1" parent="1">
          <mxGeometry x="78" y="152" width="60" height="30" as="geometry" />
        </mxCell>
        <mxCell id="U6Z3fDWPKc3-cZ_HL3Em-13" value="&lt;font style=&quot;vertical-align: inherit;&quot;&gt;&lt;font style=&quot;vertical-align: inherit;&quot;&gt;（2）&lt;/font&gt;&lt;/font&gt;" style="text;html=1;strokeColor=none;fillColor=none;align=center;verticalAlign=middle;whiteSpace=wrap;rounded=0;" vertex="1" parent="1">
          <mxGeometry x="210" y="152" width="60" height="30" as="geometry" />
        </mxCell>
        <mxCell id="U6Z3fDWPKc3-cZ_HL3Em-14" value="" style="verticalLabelPosition=bottom;verticalAlign=top;html=1;shape=mxgraph.basic.rect;fillColor2=none;strokeWidth=1;size=20;indent=5;fillColor=#000000;" vertex="1" parent="1">
          <mxGeometry x="68" y="43" width="40" height="70" as="geometry" />
        </mxCell>
        <mxCell id="U6Z3fDWPKc3-cZ_HL3Em-17" value="" style="verticalLabelPosition=bottom;verticalAlign=top;html=1;shape=mxgraph.basic.rect;fillColor2=none;strokeWidth=1;size=20;indent=5;fillColor=#FFFFFF;" vertex="1" parent="1">
          <mxGeometry x="108" y="43" width="40" height="70" as="geometry" />
        </mxCell>
        <mxCell id="U6Z3fDWPKc3-cZ_HL3Em-18" value="&lt;font style=&quot;vertical-align: inherit;&quot;&gt;&lt;font style=&quot;vertical-align: inherit;&quot;&gt;（3）&lt;/font&gt;&lt;/font&gt;" style="text;html=1;strokeColor=none;fillColor=none;align=center;verticalAlign=middle;whiteSpace=wrap;rounded=0;" vertex="1" parent="1">
          <mxGeometry x="346" y="155" width="60" height="30" as="geometry" />
        </mxCell>
        <mxCell id="U6Z3fDWPKc3-cZ_HL3Em-19" value="" style="verticalLabelPosition=bottom;verticalAlign=top;html=1;shape=mxgraph.basic.rect;fillColor2=none;strokeWidth=1;size=20;indent=5;fillColor=#000000;direction=south;" vertex="1" parent="1">
          <mxGeometry x="336" y="39" width="70" height="40" as="geometry" />
        </mxCell>
        <mxCell id="U6Z3fDWPKc3-cZ_HL3Em-20" value="" style="verticalLabelPosition=bottom;verticalAlign=top;html=1;shape=mxgraph.basic.rect;fillColor2=none;strokeWidth=1;size=20;indent=5;fillColor=#FFFFFF;direction=south;" vertex="1" parent="1">
          <mxGeometry x="336" y="77" width="70" height="40" as="geometry" />
        </mxCell>
        <mxCell id="U6Z3fDWPKc3-cZ_HL3Em-24" value="" style="whiteSpace=wrap;html=1;aspect=fixed;fillColor=#FFFFFF;" vertex="1" parent="1">
          <mxGeometry x="453" y="31" width="113" height="113" as="geometry" />
        </mxCell>
        <mxCell id="U6Z3fDWPKc3-cZ_HL3Em-25" value="&lt;font style=&quot;vertical-align: inherit;&quot;&gt;&lt;font style=&quot;vertical-align: inherit;&quot;&gt;（4）&lt;/font&gt;&lt;/font&gt;" style="text;html=1;strokeColor=none;fillColor=none;align=center;verticalAlign=middle;whiteSpace=wrap;rounded=0;" vertex="1" parent="1">
          <mxGeometry x="484.5" y="155" width="60" height="30" as="geometry" />
        </mxCell>
        <mxCell id="U6Z3fDWPKc3-cZ_HL3Em-66" value="" style="shape=table;startSize=0;container=1;collapsible=0;childLayout=tableLayout;fillColor=#FFFFFF;" vertex="1" parent="1">
          <mxGeometry x="476" y="39" width="70" height="75" as="geometry" />
        </mxCell>
        <mxCell id="U6Z3fDWPKc3-cZ_HL3Em-67" value="" style="shape=tableRow;horizontal=0;startSize=0;swimlaneHead=0;swimlaneBody=0;top=0;left=0;bottom=0;right=0;collapsible=0;dropTarget=0;fillColor=none;points=[[0,0.5],[1,0.5]];portConstraint=eastwest;" vertex="1" parent="U6Z3fDWPKc3-cZ_HL3Em-66">
          <mxGeometry width="70" height="30" as="geometry" />
        </mxCell>
        <mxCell id="U6Z3fDWPKc3-cZ_HL3Em-68" value="" style="shape=partialRectangle;html=1;whiteSpace=wrap;connectable=0;overflow=hidden;fillColor=none;top=0;left=0;bottom=0;right=0;pointerEvents=1;" vertex="1" parent="U6Z3fDWPKc3-cZ_HL3Em-67">
          <mxGeometry width="35" height="30" as="geometry">
            <mxRectangle width="35" height="30" as="alternateBounds" />
          </mxGeometry>
        </mxCell>
        <mxCell id="U6Z3fDWPKc3-cZ_HL3Em-69" value="" style="shape=partialRectangle;html=1;whiteSpace=wrap;connectable=0;overflow=hidden;fillColor=#000000;top=0;left=0;bottom=0;right=0;pointerEvents=1;" vertex="1" parent="U6Z3fDWPKc3-cZ_HL3Em-67">
          <mxGeometry x="35" width="35" height="30" as="geometry">
            <mxRectangle width="35" height="30" as="alternateBounds" />
          </mxGeometry>
        </mxCell>
        <mxCell id="U6Z3fDWPKc3-cZ_HL3Em-70" value="" style="shape=tableRow;horizontal=0;startSize=0;swimlaneHead=0;swimlaneBody=0;top=0;left=0;bottom=0;right=0;collapsible=0;dropTarget=0;fillColor=none;points=[[0,0.5],[1,0.5]];portConstraint=eastwest;" vertex="1" parent="U6Z3fDWPKc3-cZ_HL3Em-66">
          <mxGeometry y="30" width="70" height="45" as="geometry" />
        </mxCell>
        <mxCell id="U6Z3fDWPKc3-cZ_HL3Em-71" value="" style="shape=partialRectangle;html=1;whiteSpace=wrap;connectable=0;overflow=hidden;fillColor=#000000;top=0;left=0;bottom=0;right=0;pointerEvents=1;" vertex="1" parent="U6Z3fDWPKc3-cZ_HL3Em-70">
          <mxGeometry width="35" height="45" as="geometry">
            <mxRectangle width="35" height="45" as="alternateBounds" />
          </mxGeometry>
        </mxCell>
        <mxCell id="U6Z3fDWPKc3-cZ_HL3Em-72" value="" style="shape=partialRectangle;html=1;whiteSpace=wrap;connectable=0;overflow=hidden;fillColor=none;top=0;left=0;bottom=0;right=0;pointerEvents=1;" vertex="1" parent="U6Z3fDWPKc3-cZ_HL3Em-70">
          <mxGeometry x="35" width="35" height="45" as="geometry">
            <mxRectangle width="35" height="45" as="alternateBounds" />
          </mxGeometry>
        </mxCell>
        <mxCell id="U6Z3fDWPKc3-cZ_HL3Em-73" value="" style="shape=table;startSize=0;container=1;collapsible=0;childLayout=tableLayout;fillColor=#FFFFFF;" vertex="1" parent="1">
          <mxGeometry x="76" y="268" width="80" height="80" as="geometry" />
        </mxCell>
        <mxCell id="U6Z3fDWPKc3-cZ_HL3Em-74" value="" style="shape=tableRow;horizontal=0;startSize=0;swimlaneHead=0;swimlaneBody=0;top=0;left=0;bottom=0;right=0;collapsible=0;dropTarget=0;fillColor=none;points=[[0,0.5],[1,0.5]];portConstraint=eastwest;" vertex="1" parent="U6Z3fDWPKc3-cZ_HL3Em-73">
          <mxGeometry width="80" height="80" as="geometry" />
        </mxCell>
        <mxCell id="U6Z3fDWPKc3-cZ_HL3Em-75" value="" style="shape=partialRectangle;html=1;whiteSpace=wrap;connectable=0;overflow=hidden;fillColor=none;top=0;left=0;bottom=0;right=0;pointerEvents=1;" vertex="1" parent="U6Z3fDWPKc3-cZ_HL3Em-74">
          <mxGeometry width="41" height="80" as="geometry">
            <mxRectangle width="41" height="80" as="alternateBounds" />
          </mxGeometry>
        </mxCell>
        <mxCell id="U6Z3fDWPKc3-cZ_HL3Em-76" value="" style="shape=partialRectangle;html=1;whiteSpace=wrap;connectable=0;overflow=hidden;fillColor=#000000;top=0;left=0;bottom=0;right=0;pointerEvents=1;" vertex="1" parent="U6Z3fDWPKc3-cZ_HL3Em-74">
          <mxGeometry x="41" width="39" height="80" as="geometry">
            <mxRectangle width="39" height="80" as="alternateBounds" />
          </mxGeometry>
        </mxCell>
        <mxCell id="U6Z3fDWPKc3-cZ_HL3Em-77" value="&lt;font style=&quot;vertical-align: inherit;&quot;&gt;&lt;font style=&quot;vertical-align: inherit;&quot;&gt;（a)&lt;/font&gt;&lt;/font&gt;" style="text;html=1;strokeColor=none;fillColor=none;align=center;verticalAlign=middle;whiteSpace=wrap;rounded=0;" vertex="1" parent="1">
          <mxGeometry x="88" y="359" width="60" height="30" as="geometry" />
        </mxCell>
        <mxCell id="U6Z3fDWPKc3-cZ_HL3Em-83" value="" style="shape=table;startSize=0;container=1;collapsible=0;childLayout=tableLayout;fillColor=#000000;direction=north;" vertex="1" parent="1">
          <mxGeometry x="210" y="268" width="80" height="80" as="geometry" />
        </mxCell>
        <mxCell id="U6Z3fDWPKc3-cZ_HL3Em-84" value="" style="shape=tableRow;horizontal=0;startSize=0;swimlaneHead=0;swimlaneBody=0;top=0;left=0;bottom=0;right=0;collapsible=0;dropTarget=0;fillColor=none;points=[[0,0.5],[1,0.5]];portConstraint=eastwest;" vertex="1" parent="U6Z3fDWPKc3-cZ_HL3Em-83">
          <mxGeometry width="80" height="40" as="geometry" />
        </mxCell>
        <mxCell id="U6Z3fDWPKc3-cZ_HL3Em-85" value="" style="shape=partialRectangle;html=1;whiteSpace=wrap;connectable=0;overflow=hidden;fillColor=#FFFFFF;top=0;left=0;bottom=0;right=0;pointerEvents=1;" vertex="1" parent="U6Z3fDWPKc3-cZ_HL3Em-84">
          <mxGeometry width="80" height="40" as="geometry">
            <mxRectangle width="80" height="40" as="alternateBounds" />
          </mxGeometry>
        </mxCell>
        <mxCell id="U6Z3fDWPKc3-cZ_HL3Em-86" value="" style="shape=tableRow;horizontal=0;startSize=0;swimlaneHead=0;swimlaneBody=0;top=0;left=0;bottom=0;right=0;collapsible=0;dropTarget=0;fillColor=none;points=[[0,0.5],[1,0.5]];portConstraint=eastwest;" vertex="1" parent="U6Z3fDWPKc3-cZ_HL3Em-83">
          <mxGeometry y="40" width="80" height="40" as="geometry" />
        </mxCell>
        <mxCell id="U6Z3fDWPKc3-cZ_HL3Em-87" value="" style="shape=partialRectangle;html=1;whiteSpace=wrap;connectable=0;overflow=hidden;fillColor=none;top=0;left=0;bottom=0;right=0;pointerEvents=1;" vertex="1" parent="U6Z3fDWPKc3-cZ_HL3Em-86">
          <mxGeometry width="80" height="40" as="geometry">
            <mxRectangle width="80" height="40" as="alternateBounds" />
          </mxGeometry>
        </mxCell>
        <mxCell id="U6Z3fDWPKc3-cZ_HL3Em-88" value="(b)" style="text;html=1;strokeColor=none;fillColor=none;align=center;verticalAlign=middle;whiteSpace=wrap;rounded=0;" vertex="1" parent="1">
          <mxGeometry x="223" y="359" width="60" height="30" as="geometry" />
        </mxCell>
      </root>
    </mxGraphModel>
  </diagram>
</mxfile>
